<?xml version="1.0" encoding="UTF-8"?>
<!DOCTYPE svg PUBLIC "-//W3C//DTD SVG 1.1//EN" "http://www.w3.org/Graphics/SVG/1.1/DTD/svg11.dtd">
<svg xmlns="http://www.w3.org/2000/svg" version="1.1" width="224px" height="214px" style="shape-rendering:geometricPrecision; text-rendering:geometricPrecision; image-rendering:optimizeQuality; fill-rule:evenodd; clip-rule:evenodd" xmlns:xlink="http://www.w3.org/1999/xlink">
<g><path style="opacity:0.98" fill="#0c0d0e" d="M 76.5,46.5 C 104.169,46.3334 131.835,46.5 159.5,47C 163.281,49.113 166.448,51.9463 169,55.5C 179.762,80.0251 180.095,104.692 170,129.5C 165.007,138.914 157.174,142.914 146.5,141.5C 147.802,154.186 143.469,164.352 133.5,172C 107.833,172.667 82.1667,172.667 56.5,172C 51.6437,170.105 49.8103,166.605 51,161.5C 54.0951,158.308 56.4284,154.641 58,150.5C 58.3333,129.5 58.6667,108.5 59,87.5C 58.9136,74.77 62.2469,63.1033 69,52.5C 71.3991,50.256 73.8991,48.256 76.5,46.5 Z"/></g>
<g><path style="opacity:1" fill="#e5e5e6" d="M 150.5,54.5 C 143.019,61.3769 138.852,70.0436 138,80.5C 137.501,84.8206 137.334,89.1539 137.5,93.5C 114.167,93.5 90.8333,93.5 67.5,93.5C 67.5,89.5 67.5,85.5 67.5,81.5C 68.5106,74.617 70.344,67.9503 73,61.5C 74.4578,59.04 76.2911,56.8734 78.5,55C 102.498,54.5 126.498,54.3334 150.5,54.5 Z"/></g>
<g><path style="opacity:1" fill="#b8b7b8" d="M 150.5,54.5 C 155.542,54.015 159.376,56.015 162,60.5C 164.279,66.0598 166.279,71.7265 168,77.5C 169.13,90.6186 168.463,103.619 166,116.5C 164.584,123.329 161.084,128.662 155.5,132.5C 153.5,132.5 151.5,132.5 149.5,132.5C 147.5,130.329 145.666,127.996 144,125.5C 140.785,118.693 138.619,111.693 137.5,104.5C 137.5,100.833 137.5,97.1667 137.5,93.5C 137.334,89.1539 137.501,84.8206 138,80.5C 138.852,70.0436 143.019,61.3769 150.5,54.5 Z"/></g>
<g><path style="opacity:1" fill="#5e4036" d="M 158.5,93.5 C 154.833,93.5 151.167,93.5 147.5,93.5C 147.301,90.059 147.801,86.7256 149,83.5C 153.01,79.1694 156.01,79.8361 158,85.5C 158.497,88.146 158.664,90.8127 158.5,93.5 Z"/></g>
<g><path style="opacity:1" fill="#d9d9da" d="M 67.5,81.5 C 67.5,85.5 67.5,89.5 67.5,93.5C 90.8333,93.5 114.167,93.5 137.5,93.5C 137.5,97.1667 137.5,100.833 137.5,104.5C 137.5,113.833 137.5,123.167 137.5,132.5C 137.5,137.833 137.5,143.167 137.5,148.5C 137.784,150.415 137.451,152.081 136.5,153.5C 136.5,151.833 136.5,150.167 136.5,148.5C 112.937,147.859 89.6038,148.526 66.5,150.5C 66.1692,127.327 66.5025,104.327 67.5,81.5 Z"/></g>
<g><path style="opacity:1" fill="#855534" d="M 147.5,93.5 C 151.167,93.5 154.833,93.5 158.5,93.5C 158.699,96.941 158.199,100.274 157,103.5C 153.898,108.924 151.231,108.59 149,102.5C 147.851,99.6074 147.351,96.6074 147.5,93.5 Z"/></g>
<g><path style="opacity:1" fill="#737374" d="M 137.5,104.5 C 138.619,111.693 140.785,118.693 144,125.5C 145.666,127.996 147.5,130.329 149.5,132.5C 145.5,132.5 141.5,132.5 137.5,132.5C 137.5,123.167 137.5,113.833 137.5,104.5 Z"/></g>
<g><path style="opacity:1" fill="#323232" d="M 137.5,132.5 C 141.5,132.5 145.5,132.5 149.5,132.5C 151.5,132.5 153.5,132.5 155.5,132.5C 150.025,133.489 144.358,133.822 138.5,133.5C 138.821,138.695 138.487,143.695 137.5,148.5C 137.5,143.167 137.5,137.833 137.5,132.5 Z"/></g>
<g><path style="opacity:1" fill="#e4e4e5" d="M 136.5,153.5 C 135.521,157.461 133.521,160.794 130.5,163.5C 107.142,164.156 84.1424,163.49 61.5,161.5C 64.5013,158.481 66.168,154.815 66.5,150.5C 89.6038,148.526 112.937,147.859 136.5,148.5C 136.5,150.167 136.5,151.833 136.5,153.5 Z"/></g>
<g><path style="opacity:1" fill="#c0c0c1" d="M 61.5,161.5 C 84.1424,163.49 107.142,164.156 130.5,163.5C 106.997,164.829 83.3299,164.829 59.5,163.5C 59.8555,162.478 60.5222,161.811 61.5,161.5 Z"/></g>
</svg>
