<?xml version="1.0" encoding="UTF-8"?>
<!DOCTYPE svg PUBLIC "-//W3C//DTD SVG 1.1//EN" "http://www.w3.org/Graphics/SVG/1.1/DTD/svg11.dtd">
<svg xmlns="http://www.w3.org/2000/svg" version="1.1" width="167px" height="138px" style="shape-rendering:geometricPrecision; text-rendering:geometricPrecision; image-rendering:optimizeQuality; fill-rule:evenodd; clip-rule:evenodd" xmlns:xlink="http://www.w3.org/1999/xlink">
<g><path style="opacity:1" fill="#0d0d0e" d="M 77.5,5.5 C 93.9934,3.98944 103.827,11.3228 107,27.5C 107.333,45.5 107.667,63.5 108,81.5C 117.438,94.2585 117.772,107.258 109,120.5C 95.622,135.258 80.4554,137.425 63.5,127C 51.8275,116.812 48.3275,104.312 53,89.5C 54.2709,86.5674 55.9376,83.9007 58,81.5C 58.0622,61.7904 58.7288,42.1237 60,22.5C 63.118,13.8798 68.9513,8.21312 77.5,5.5 Z"/></g>
<g><path style="opacity:1" fill="#ddd9d9" d="M 78.5,13.5 C 88.8385,12.4142 95.6718,16.7476 99,26.5C 99.3333,45.8333 99.6667,65.1667 100,84.5C 108.305,95.1735 108.638,106.173 101,117.5C 89,128.167 77,128.167 65,117.5C 57.3615,106.173 57.6948,95.1735 66,84.5C 66.3333,65.1667 66.6667,45.8333 67,26.5C 69.273,20.7304 73.1063,16.397 78.5,13.5 Z"/></g>
<g><path style="opacity:1" fill="#41c1e0" d="M 90.5,49.5 C 85.5,49.5 80.5,49.5 75.5,49.5C 74.3448,42.3451 74.1782,35.0118 75,27.5C 78.0315,21.2794 82.5315,19.9461 88.5,23.5C 89.5836,24.6651 90.4169,25.9984 91,27.5C 91.8218,35.0118 91.6552,42.3451 90.5,49.5 Z"/></g>
<g><path style="opacity:1" fill="#d93a1d" d="M 75.5,49.5 C 80.5,49.5 85.5,49.5 90.5,49.5C 90.3334,62.1711 90.5001,74.8377 91,87.5C 100.78,96.4735 100.946,105.64 91.5,115C 80.8291,119.912 72.9957,117.078 68,106.5C 65.9916,98.5218 68.3249,92.1884 75,87.5C 75.4999,74.8377 75.6666,62.1711 75.5,49.5 Z"/></g>
</svg>
