<svg version="1.1" id="Layer_1" xmlns="http://www.w3.org/2000/svg" xmlns:xlink="http://www.w3.org/1999/xlink" x="0px" y="0px"
	 width="100%" viewBox="0 0 512 512" enable-background="new 0 0 512 512" xml:space="preserve">
<path fill="#000000" opacity="1.000000" stroke="none" 
	d="
M513.000000,188.000000 
	C513.000000,296.640259 513.000000,404.780518 513.000000,512.960388 
	C342.401398,512.960388 171.802780,512.960388 1.102087,512.960388 
	C1.102087,342.443115 1.102087,171.886124 1.102087,1.164572 
	C171.666534,1.164572 342.333252,1.164572 513.000000,1.164572 
	C513.000000,63.197178 513.000000,125.348587 513.000000,188.000000 
M388.015686,250.068222 
	C388.091217,244.371979 388.166748,238.675751 389.143738,233.009933 
	C401.610046,233.007156 414.076813,233.066772 426.542511,232.978256 
	C434.037628,232.925049 438.112396,229.332596 437.999329,223.194534 
	C437.892944,217.421005 433.869446,214.075851 426.558838,214.024170 
	C413.760742,213.933731 400.961517,213.994293 388.015900,213.066971 
	C388.064850,207.380203 388.113831,201.693451 389.077209,196.001175 
	C396.738556,196.000732 404.399994,196.025818 412.061188,195.991577 
	C417.961273,195.965225 422.108246,192.089676 421.998566,186.792664 
	C421.894257,181.754593 417.768951,178.035339 412.145935,178.008850 
	C404.151642,177.971207 396.157104,177.995316 388.015472,177.067657 
	C388.064484,171.047409 388.113495,165.027161 389.077026,159.001328 
	C402.516174,159.000793 415.955536,159.040848 429.394440,158.982407 
	C436.023895,158.953583 440.040283,153.242371 437.616425,147.185562 
	C435.833557,142.730362 432.132172,140.995926 427.484894,140.997253 
	C414.377563,141.001022 401.270264,140.994339 388.015900,140.067169 
	C388.064880,134.380600 388.113861,128.694031 389.077271,123.001892 
	C396.741028,123.001343 404.404938,123.026062 412.068542,122.991882 
	C417.724792,122.966652 421.880585,119.291832 421.999176,114.301117 
	C422.125946,108.966461 418.009338,105.038918 412.153259,105.009575 
	C404.156494,104.969490 396.159393,104.995323 388.015503,104.067482 
	C388.064423,98.047508 388.113342,92.027542 389.076782,86.001556 
	C402.515900,86.001045 415.955231,86.041000 429.394104,85.982811 
	C436.022827,85.954117 440.040527,80.242760 437.617523,74.186195 
	C435.835083,69.730652 432.133514,67.997215 427.485748,67.998550 
	C414.378448,68.002327 401.271179,67.994675 388.019470,67.116615 
	C386.873627,48.006466 378.082275,33.264076 362.819916,21.922430 
	C349.944214,12.354305 335.434326,10.091312 319.184570,11.027973 
	C318.454529,11.344591 317.751068,11.836607 316.990509,11.951842 
	C302.741241,14.110808 291.129272,20.846533 281.720123,31.725494 
	C271.911865,43.065903 266.838440,56.057957 266.980011,71.090752 
	C267.039398,77.392845 266.885956,83.696938 266.129639,89.982307 
	C259.899567,86.594025 253.844666,82.819954 247.404053,79.895287 
	C232.590485,73.168480 216.750870,71.931839 200.998245,74.263412 
	C187.197723,76.306053 173.883102,81.037659 162.887604,90.122459 
	C156.764832,95.181274 151.525406,101.309204 145.263092,107.232132 
	C141.850540,112.537819 137.842758,117.558235 135.137466,123.202888 
	C127.140236,139.889297 125.235764,157.536026 127.959793,175.803635 
	C130.558044,193.227768 138.064911,208.352859 149.817947,221.175568 
	C164.591995,237.294296 183.359116,246.663651 204.969177,248.797485 
	C227.430573,251.015350 248.494537,245.998398 266.986267,232.930603 
	C266.990601,251.579605 266.961792,270.228729 267.036682,288.877441 
	C267.047333,291.523956 266.461853,293.107941 263.936768,294.763367 
	C245.533615,306.828400 232.075623,323.111725 223.225250,343.304352 
	C213.629440,365.197784 211.605911,387.795624 215.955948,411.166321 
	C221.632706,441.664795 237.560257,465.592010 262.809998,483.161774 
	C281.074799,495.871124 301.407196,503.070251 324.908081,502.991150 
	C332.322998,502.664001 339.920776,503.251434 347.113647,501.813599 
	C360.812897,499.075226 373.976929,494.514130 386.040985,487.062073 
	C403.928284,476.013000 417.939972,461.378876 427.995789,442.964478 
	C437.722504,425.152832 441.711426,406.140015 441.176147,385.789551 
	C440.749939,369.585785 437.272797,354.373566 430.382050,339.879303 
	C421.449554,321.090332 408.168152,305.997162 390.964813,294.289703 
	C389.622681,293.376343 388.188568,291.472992 388.135681,289.982239 
	C387.887878,282.999603 388.108978,276.000305 389.077057,269.001221 
	C396.739838,269.000824 404.402771,269.026489 412.065399,268.991608 
	C417.963623,268.964722 422.104492,265.092255 421.998871,259.792145 
	C421.898682,254.762344 417.767212,251.035843 412.150604,251.009125 
	C404.154816,250.971100 396.158722,250.995438 388.015686,250.068222 
M88.002792,223.097702 
	C89.650871,232.623779 100.166740,235.453674 106.982216,231.063065 
	C112.015091,227.820801 117.347267,225.041199 122.562775,222.084885 
	C128.233459,218.870544 130.765564,211.541901 128.038925,206.138794 
	C124.757065,199.635483 117.531425,197.047485 111.204277,200.384888 
	C106.200134,203.024460 101.553589,206.381943 96.445396,208.773849 
	C90.512939,211.551758 87.705421,215.814163 88.002792,223.097702 
M167.206238,258.295074 
	C169.484238,250.077881 167.292419,244.804733 160.361649,241.828125 
	C154.271439,239.212524 149.093903,241.402710 144.839005,248.534256 
	C142.018021,253.262451 139.538666,258.205353 136.542679,262.815826 
	C131.434723,270.676361 134.527435,276.540222 140.601959,280.794952 
	C145.508087,284.231293 153.271057,281.745178 157.007736,275.776520 
	C160.448212,270.281036 163.673965,264.651123 167.206238,258.295074 
M146.997696,73.492020 
	C147.346115,73.848396 147.664291,74.241676 148.047516,74.555565 
	C153.025421,78.632820 159.368652,78.942436 164.132599,75.353989 
	C168.629181,71.966927 169.916016,65.954407 166.976395,60.164501 
	C164.052811,54.406120 160.765259,48.832344 157.630188,43.181580 
	C154.433990,37.420689 146.085251,34.910431 140.715790,38.088348 
	C135.133865,41.392002 132.979553,50.341805 136.333328,55.866478 
	C139.770767,61.528992 143.088913,67.263931 146.997696,73.492020 
M126.577194,99.056160 
	C121.049706,95.702080 115.670044,92.061043 109.936302,89.107338 
	C106.770020,87.476242 103.062492,86.509430 99.503906,86.126587 
	C95.300674,85.674370 90.254082,89.771011 89.133766,93.645599 
	C87.731148,98.496506 89.781242,105.625389 93.526566,107.807854 
	C99.535728,111.309471 105.451134,115.162758 111.868706,117.695305 
	C115.270607,119.037773 120.225380,119.153816 123.466431,117.646278 
	C130.809296,114.230843 131.677582,107.815529 126.577194,99.056160 
M215.997986,294.103333 
	C216.337738,287.550201 216.451752,280.975494 217.074905,274.449402 
	C217.837128,266.467072 214.010223,260.637115 207.476120,259.957245 
	C197.077316,258.875275 193.304718,265.292450 192.974854,272.783997 
	C192.787781,277.032837 192.536270,281.295441 191.980499,285.507874 
	C190.921432,293.534790 194.410034,300.887756 200.452255,302.823517 
	C206.378128,304.721985 212.577576,301.571869 215.997986,294.103333 
M217.587646,62.999962 
	C224.583405,62.832695 229.505844,59.029106 229.950394,53.003250 
	C230.483658,45.775246 230.787766,38.524277 230.962601,31.277742 
	C231.110855,25.133797 226.675552,20.493500 221.126480,19.948671 
	C211.051224,18.959448 207.571518,24.841055 207.075638,30.098867 
	C206.441849,36.819008 206.180817,43.585602 206.040863,50.338013 
	C205.884155,57.899769 209.129822,61.566620 217.587646,62.999962 
M72.524254,156.043335 
	C74.155281,164.239960 77.575531,166.999390 86.105919,166.999908 
	C92.098915,167.000290 98.091911,167.003967 104.084908,166.998840 
	C110.376007,166.993454 114.936653,163.387939 115.979622,157.606323 
	C117.092117,151.439362 113.955788,145.309753 107.810356,144.104706 
	C101.906219,142.946991 95.706696,143.110886 89.633011,143.041672 
	C77.438599,142.902664 75.869392,144.106186 72.524254,156.043335 
z"/>
<path fill="#E4E3FE" opacity="1.000000" stroke="none" 
	d="
M323.983093,502.823700 
	C301.407196,503.070251 281.074799,495.871124 262.809998,483.161774 
	C237.560257,465.592010 221.632706,441.664795 215.955948,411.166321 
	C211.605911,387.795624 213.629440,365.197784 223.225250,343.304352 
	C232.075623,323.111725 245.533615,306.828400 263.936768,294.763367 
	C266.461853,293.107941 267.047333,291.523956 267.036682,288.877441 
	C266.961792,270.228729 266.990601,251.579605 267.006409,232.008148 
	C267.071899,223.448990 267.165619,215.812195 267.153809,208.175583 
	C267.111450,180.780106 267.033386,153.384659 267.048767,125.527031 
	C267.028900,113.376610 266.929077,101.688362 266.829254,90.000122 
	C266.885956,83.696938 267.039398,77.392845 266.980011,71.090752 
	C266.838440,56.057957 271.911865,43.065903 281.720123,31.725494 
	C291.129272,20.846533 302.741241,14.110808 316.990509,11.951842 
	C317.751068,11.836607 318.454529,11.344591 319.681885,11.439194 
	C321.810883,12.529178 323.395721,13.367293 325.081268,13.862834 
	C350.803650,21.425076 368.262054,45.533672 368.124268,72.552567 
	C367.760773,143.828827 368.040253,215.108231 367.911072,286.386108 
	C367.902710,291.002991 369.036743,293.990509 373.108246,296.619446 
	C384.085541,303.707428 392.910461,313.165344 400.436584,323.785675 
	C418.097015,348.706818 424.216797,376.493134 419.907379,406.505768 
	C416.234100,432.088562 404.296539,453.808838 385.761322,471.456909 
	C369.081116,487.338684 349.145050,497.628540 326.047211,501.098633 
	C325.289886,501.212402 324.668091,502.228302 323.983093,502.823700 
M315.885529,469.992096 
	C324.658752,469.929047 333.639740,471.074890 342.171814,469.608612 
	C401.734833,459.372498 429.282715,389.036072 393.123444,340.513397 
	C384.338287,328.724457 372.702789,320.556488 360.216034,313.432465 
	C356.797668,311.482239 355.902069,309.258240 355.913879,305.529877 
	C356.042236,265.046844 356.087280,224.562912 355.948151,184.079941 
	C355.873627,162.400818 332.267212,148.908737 313.240845,160.022736 
	C303.499939,166.133652 299.090057,175.060989 299.100555,186.430939 
	C299.133636,222.232391 298.494110,258.050354 299.445984,293.826508 
	C299.780762,306.409485 297.331482,315.277039 285.005463,319.799500 
	C284.396942,320.022766 283.874146,320.496490 283.332581,320.883270 
	C261.088135,336.771240 247.281693,357.824127 246.172394,385.537811 
	C244.476257,427.911865 273.134705,462.471802 315.885529,469.992096 
M285.384766,72.068962 
	C280.123810,72.693535 277.990143,75.894737 277.994415,80.936493 
	C278.009644,98.907898 277.978394,116.879364 278.013733,134.850708 
	C278.024170,140.163910 280.776764,143.918274 284.512329,143.978714 
	C288.696472,144.046402 291.905304,140.545929 291.944672,135.081680 
	C292.074158,117.111206 292.068146,99.138687 291.939117,81.168213 
	C291.910400,77.168312 290.397919,73.675598 285.384766,72.068962 
M291.998047,158.411118 
	C292.031067,154.422577 291.404327,150.510117 287.549866,148.520187 
	C284.549469,146.971161 281.750610,148.115799 279.710571,150.899475 
	C277.089752,154.475647 277.185608,162.467850 280.067719,165.463058 
	C282.524872,168.016708 285.723389,169.211624 288.427246,166.533401 
	C290.239990,164.737839 290.845642,161.723587 291.998047,158.411118 
z"/>
<path fill="#F9B938" opacity="1.000000" stroke="none" 
	d="
M266.968811,125.989212 
	C267.033386,153.384659 267.111450,180.780106 267.153809,208.175583 
	C267.165619,215.812195 267.071899,223.448990 266.931458,231.545090 
	C248.494537,245.998398 227.430573,251.015350 204.969177,248.797485 
	C183.359116,246.663651 164.591995,237.294296 149.817947,221.175568 
	C138.064911,208.352859 130.558044,193.227768 127.959793,175.803635 
	C125.235764,157.536026 127.140236,139.889297 135.137466,123.202888 
	C137.842758,117.558235 141.850540,112.537819 145.938873,107.069839 
	C150.823090,104.628571 154.963791,102.212326 159.252457,100.095940 
	C172.965942,93.328552 187.543427,91.256889 202.717026,91.938599 
	C214.862701,92.484261 226.093979,95.867317 236.888763,101.258209 
	C248.827072,107.220184 258.368103,116.012093 266.968811,125.989212 
M138.057800,180.225601 
	C141.602112,188.600662 145.026077,197.029755 148.749985,205.324188 
	C150.239731,208.642410 153.130783,209.962311 156.579376,208.111282 
	C160.139389,206.200439 160.796021,203.207581 158.848999,199.688934 
	C157.643524,197.510422 156.187347,195.454346 155.147583,193.202957 
	C144.888947,170.990387 144.946457,148.962692 156.406372,127.135902 
	C158.774933,122.624687 158.098022,119.526054 154.509323,117.848320 
	C150.369965,115.913139 148.052460,118.126007 146.156067,121.592079 
	C136.170303,139.843170 133.678528,159.127213 138.057800,180.225601 
z"/>
<path fill="#D1D0F7" opacity="1.000000" stroke="none" 
	d="
M324.445587,502.907410 
	C324.668091,502.228302 325.289886,501.212402 326.047211,501.098633 
	C349.145050,497.628540 369.081116,487.338684 385.761322,471.456909 
	C404.296539,453.808838 416.234100,432.088562 419.907379,406.505768 
	C424.216797,376.493134 418.097015,348.706818 400.436584,323.785675 
	C392.910461,313.165344 384.085541,303.707428 373.108246,296.619446 
	C369.036743,293.990509 367.902710,291.002991 367.911072,286.386108 
	C368.040253,215.108231 367.760773,143.828827 368.124268,72.552567 
	C368.262054,45.533672 350.803650,21.425076 325.081268,13.862834 
	C323.395721,13.367293 321.810883,12.529178 320.084015,11.506798 
	C335.434326,10.091312 349.944214,12.354305 362.819916,21.922430 
	C378.082275,33.264076 386.873627,48.006466 388.026093,68.016815 
	C388.075928,74.613869 388.119110,80.310715 388.162292,86.007568 
	C388.113342,92.027542 388.064423,98.047508 388.024597,104.992996 
	C388.076782,111.614822 388.119812,117.311142 388.162842,123.007462 
	C388.113861,128.694031 388.064880,134.380600 388.025269,140.992401 
	C388.077271,147.614044 388.119904,153.310486 388.162537,159.006912 
	C388.113495,165.027161 388.064484,171.047409 388.024780,177.993164 
	C388.076965,184.614670 388.119873,190.310669 388.162781,196.006683 
	C388.113831,201.693451 388.064850,207.380203 388.025116,213.992493 
	C388.103638,220.938522 388.172943,226.959015 388.242279,232.979507 
	C388.166748,238.675751 388.091217,244.371979 388.024963,250.993469 
	C388.076996,257.614807 388.119812,263.310883 388.162598,269.006958 
	C388.108978,276.000305 387.887878,282.999603 388.135681,289.982239 
	C388.188568,291.472992 389.622681,293.376343 390.964813,294.289703 
	C408.168152,305.997162 421.449554,321.090332 430.382050,339.879303 
	C437.272797,354.373566 440.749939,369.585785 441.176147,385.789551 
	C441.711426,406.140015 437.722504,425.152832 427.995789,442.964478 
	C417.939972,461.378876 403.928284,476.013000 386.040985,487.062073 
	C373.976929,494.514130 360.812897,499.075226 347.113647,501.813599 
	C339.920776,503.251434 332.322998,502.664001 324.445587,502.907410 
z"/>
<path fill="#ECB022" opacity="1.000000" stroke="none" 
	d="
M267.048767,125.527031 
	C258.368103,116.012093 248.827072,107.220184 236.888763,101.258209 
	C226.093979,95.867317 214.862701,92.484261 202.717026,91.938599 
	C187.543427,91.256889 172.965942,93.328552 159.252457,100.095940 
	C154.963791,102.212326 150.823090,104.628571 146.251282,106.931435 
	C151.525406,101.309204 156.764832,95.181274 162.887604,90.122459 
	C173.883102,81.037659 187.197723,76.306053 200.998245,74.263412 
	C216.750870,71.931839 232.590485,73.168480 247.404053,79.895287 
	C253.844666,82.819954 259.899567,86.594025 266.479431,89.991211 
	C266.929077,101.688362 267.028900,113.376610 267.048767,125.527031 
z"/>
<path fill="#F9B938" opacity="1.000000" stroke="none" 
	d="
M88.001495,222.678131 
	C87.705421,215.814163 90.512939,211.551758 96.445396,208.773849 
	C101.553589,206.381943 106.200134,203.024460 111.204277,200.384888 
	C117.531425,197.047485 124.757065,199.635483 128.038925,206.138794 
	C130.765564,211.541901 128.233459,218.870544 122.562775,222.084885 
	C117.347267,225.041199 112.015091,227.820801 106.982216,231.063065 
	C100.166740,235.453674 89.650871,232.623779 88.001495,222.678131 
z"/>
<path fill="#F9B938" opacity="1.000000" stroke="none" 
	d="
M167.100266,258.687744 
	C163.673965,264.651123 160.448212,270.281036 157.007736,275.776520 
	C153.271057,281.745178 145.508087,284.231293 140.601959,280.794952 
	C134.527435,276.540222 131.434723,270.676361 136.542679,262.815826 
	C139.538666,258.205353 142.018021,253.262451 144.839005,248.534256 
	C149.093903,241.402710 154.271439,239.212524 160.361649,241.828125 
	C167.292419,244.804733 169.484238,250.077881 167.100266,258.687744 
z"/>
<path fill="#F9B938" opacity="1.000000" stroke="none" 
	d="
M146.728485,73.229599 
	C143.088913,67.263931 139.770767,61.528992 136.333328,55.866478 
	C132.979553,50.341805 135.133865,41.392002 140.715790,38.088348 
	C146.085251,34.910431 154.433990,37.420689 157.630188,43.181580 
	C160.765259,48.832344 164.052811,54.406120 166.976395,60.164501 
	C169.916016,65.954407 168.629181,71.966927 164.132599,75.353989 
	C159.368652,78.942436 153.025421,78.632820 148.047516,74.555565 
	C147.664291,74.241676 147.346115,73.848396 146.728485,73.229599 
z"/>
<path fill="#F9B938" opacity="1.000000" stroke="none" 
	d="
M126.830658,99.338295 
	C131.677582,107.815529 130.809296,114.230843 123.466431,117.646278 
	C120.225380,119.153816 115.270607,119.037773 111.868706,117.695305 
	C105.451134,115.162758 99.535728,111.309471 93.526566,107.807854 
	C89.781242,105.625389 87.731148,98.496506 89.133766,93.645599 
	C90.254082,89.771011 95.300674,85.674370 99.503906,86.126587 
	C103.062492,86.509430 106.770020,87.476242 109.936302,89.107338 
	C115.670044,92.061043 121.049706,95.702080 126.830658,99.338295 
z"/>
<path fill="#F9B938" opacity="1.000000" stroke="none" 
	d="
M215.988068,294.518829 
	C212.577576,301.571869 206.378128,304.721985 200.452255,302.823517 
	C194.410034,300.887756 190.921432,293.534790 191.980499,285.507874 
	C192.536270,281.295441 192.787781,277.032837 192.974854,272.783997 
	C193.304718,265.292450 197.077316,258.875275 207.476120,259.957245 
	C214.010223,260.637115 217.837128,266.467072 217.074905,274.449402 
	C216.451752,280.975494 216.337738,287.550201 215.988068,294.518829 
z"/>
<path fill="#F9B938" opacity="1.000000" stroke="none" 
	d="
M217.165283,62.999798 
	C209.129822,61.566620 205.884155,57.899769 206.040863,50.338013 
	C206.180817,43.585602 206.441849,36.819008 207.075638,30.098867 
	C207.571518,24.841055 211.051224,18.959448 221.126480,19.948671 
	C226.675552,20.493500 231.110855,25.133797 230.962601,31.277742 
	C230.787766,38.524277 230.483658,45.775246 229.950394,53.003250 
	C229.505844,59.029106 224.583405,62.832695 217.165283,62.999798 
z"/>
<path fill="#F9B938" opacity="1.000000" stroke="none" 
	d="
M72.289551,155.719849 
	C75.869392,144.106186 77.438599,142.902664 89.633011,143.041672 
	C95.706696,143.110886 101.906219,142.946991 107.810356,144.104706 
	C113.955788,145.309753 117.092117,151.439362 115.979622,157.606323 
	C114.936653,163.387939 110.376007,166.993454 104.084908,166.998840 
	C98.091911,167.003967 92.098915,167.000290 86.105919,166.999908 
	C77.575531,166.999390 74.155281,164.239960 72.289551,155.719849 
z"/>
<path fill="#FC6559" opacity="1.000000" stroke="none" 
	d="
M388.692993,232.994720 
	C388.172943,226.959015 388.103638,220.938522 388.098572,214.454803 
	C400.961517,213.994293 413.760742,213.933731 426.558838,214.024170 
	C433.869446,214.075851 437.892944,217.421005 437.999329,223.194534 
	C438.112396,229.332596 434.037628,232.925049 426.542511,232.978256 
	C414.076813,233.066772 401.610046,233.007156 388.692993,232.994720 
z"/>
<path fill="#FC6559" opacity="1.000000" stroke="none" 
	d="
M388.619781,159.004120 
	C388.119904,153.310486 388.077271,147.614044 388.098785,141.454697 
	C401.270264,140.994339 414.377563,141.001022 427.484894,140.997253 
	C432.132172,140.995926 435.833557,142.730362 437.616425,147.185562 
	C440.040283,153.242371 436.023895,158.953583 429.394440,158.982407 
	C415.955536,159.040848 402.516174,159.000793 388.619781,159.004120 
z"/>
<path fill="#FC6559" opacity="1.000000" stroke="none" 
	d="
M388.619537,86.004562 
	C388.119110,80.310715 388.075928,74.613869 388.098297,68.454269 
	C401.271179,67.994675 414.378448,68.002327 427.485748,67.998550 
	C432.133514,67.997215 435.835083,69.730652 437.617523,74.186195 
	C440.040527,80.242760 436.022827,85.954117 429.394104,85.982811 
	C415.955231,86.041000 402.515900,86.001045 388.619537,86.004562 
z"/>
<path fill="#FC6559" opacity="1.000000" stroke="none" 
	d="
M388.620056,123.004677 
	C388.119812,117.311142 388.076782,111.614822 388.098083,105.455704 
	C396.159393,104.995323 404.156494,104.969490 412.153259,105.009575 
	C418.009338,105.038918 422.125946,108.966461 421.999176,114.301117 
	C421.880585,119.291832 417.724792,122.966652 412.068542,122.991882 
	C404.404938,123.026062 396.741028,123.001343 388.620056,123.004677 
z"/>
<path fill="#FC6559" opacity="1.000000" stroke="none" 
	d="
M388.619995,196.003937 
	C388.119873,190.310669 388.076965,184.614670 388.098358,178.455856 
	C396.157104,177.995316 404.151642,177.971207 412.145935,178.008850 
	C417.768951,178.035339 421.894257,181.754593 421.998566,186.792664 
	C422.108246,192.089676 417.961273,195.965225 412.061188,195.991577 
	C404.399994,196.025818 396.738556,196.000732 388.619995,196.003937 
z"/>
<path fill="#FC6559" opacity="1.000000" stroke="none" 
	d="
M388.619812,269.004089 
	C388.119812,263.310883 388.076996,257.614807 388.098511,251.455933 
	C396.158722,250.995438 404.154816,250.971100 412.150604,251.009125 
	C417.767212,251.035843 421.898682,254.762344 421.998871,259.792145 
	C422.104492,265.092255 417.963623,268.964722 412.065399,268.991608 
	C404.402771,269.026489 396.739838,269.000824 388.619812,269.004089 
z"/>
<path fill="#FC655A" opacity="1.000000" stroke="none" 
	d="
M315.071106,469.801575 
	C273.134705,462.471802 244.476257,427.911865 246.172394,385.537811 
	C247.281693,357.824127 261.088135,336.771240 283.332581,320.883270 
	C283.874146,320.496490 284.396942,320.022766 285.005463,319.799500 
	C297.331482,315.277039 299.780762,306.409485 299.445984,293.826508 
	C298.494110,258.050354 299.133636,222.232391 299.100555,186.430939 
	C299.090057,175.060989 303.499939,166.133652 313.769196,160.213379 
	C322.952667,166.721069 327.156036,175.005508 327.095062,185.950592 
	C326.872375,225.902618 327.045624,265.856720 326.941406,305.809692 
	C326.932098,309.372650 327.908142,311.420898 331.200806,313.258850 
	C343.457367,320.100525 354.894623,328.248444 363.545624,339.426819 
	C378.528381,358.786713 382.915710,380.956879 378.927216,404.832001 
	C375.477661,425.480957 364.417969,441.578949 348.242584,454.486908 
	C338.416748,462.327911 326.875000,466.316040 315.071106,469.801575 
M267.112915,419.336060 
	C269.479919,423.342743 271.576263,427.546509 274.303284,431.290985 
	C276.324371,434.066132 278.789917,437.319580 281.757172,438.355103 
	C284.221863,439.215210 288.701538,438.094910 290.518127,436.175873 
	C293.654053,432.863190 292.086639,428.885681 289.085266,425.504822 
	C272.781250,407.139404 270.084137,379.722748 284.868805,359.294525 
	C287.487122,355.676727 290.600464,352.417877 293.474426,348.984253 
	C296.478027,345.395782 296.444824,340.685486 293.024658,337.859955 
	C290.047302,335.400299 286.810089,335.045166 283.556091,337.848785 
	C260.382324,357.814972 253.385269,391.442780 267.112915,419.336060 
z"/>
<path fill="#F05644" opacity="1.000000" stroke="none" 
	d="
M315.478333,469.896851 
	C326.875000,466.316040 338.416748,462.327911 348.242584,454.486908 
	C364.417969,441.578949 375.477661,425.480957 378.927216,404.832001 
	C382.915710,380.956879 378.528381,358.786713 363.545624,339.426819 
	C354.894623,328.248444 343.457367,320.100525 331.200806,313.258850 
	C327.908142,311.420898 326.932098,309.372650 326.941406,305.809692 
	C327.045624,265.856720 326.872375,225.902618 327.095062,185.950592 
	C327.156036,175.005508 322.952667,166.721069 314.101471,160.122452 
	C332.267212,148.908737 355.873627,162.400818 355.948151,184.079941 
	C356.087280,224.562912 356.042236,265.046844 355.913879,305.529877 
	C355.902069,309.258240 356.797668,311.482239 360.216034,313.432465 
	C372.702789,320.556488 384.338287,328.724457 393.123444,340.513397 
	C429.282715,389.036072 401.734833,459.372498 342.171814,469.608612 
	C333.639740,471.074890 324.658752,469.929047 315.478333,469.896851 
z"/>
<path fill="#F2F1FF" opacity="1.000000" stroke="none" 
	d="
M285.759064,72.131157 
	C290.397919,73.675598 291.910400,77.168312 291.939117,81.168213 
	C292.068146,99.138687 292.074158,117.111206 291.944672,135.081680 
	C291.905304,140.545929 288.696472,144.046402 284.512329,143.978714 
	C280.776764,143.918274 278.024170,140.163910 278.013733,134.850708 
	C277.978394,116.879364 278.009644,98.907898 277.994415,80.936493 
	C277.990143,75.894737 280.123810,72.693535 285.759064,72.131157 
z"/>
<path fill="#F2F1FF" opacity="1.000000" stroke="none" 
	d="
M291.994720,158.832870 
	C290.845642,161.723587 290.239990,164.737839 288.427246,166.533401 
	C285.723389,169.211624 282.524872,168.016708 280.067719,165.463058 
	C277.185608,162.467850 277.089752,154.475647 279.710571,150.899475 
	C281.750610,148.115799 284.549469,146.971161 287.549866,148.520187 
	C291.404327,150.510117 292.031067,154.422577 291.994720,158.832870 
z"/>
<path fill="#FBCD71" opacity="1.000000" stroke="none" 
	d="
M138.023468,179.805511 
	C133.678528,159.127213 136.170303,139.843170 146.156067,121.592079 
	C148.052460,118.126007 150.369965,115.913139 154.509323,117.848320 
	C158.098022,119.526054 158.774933,122.624687 156.406372,127.135902 
	C144.946457,148.962692 144.888947,170.990387 155.147583,193.202957 
	C156.187347,195.454346 157.643524,197.510422 158.848999,199.688934 
	C160.796021,203.207581 160.139389,206.200439 156.579376,208.111282 
	C153.130783,209.962311 150.239731,208.642410 148.749985,205.324188 
	C145.026077,197.029755 141.602112,188.600662 138.023468,179.805511 
z"/>
<path fill="#FD9289" opacity="1.000000" stroke="none" 
	d="
M266.955902,418.995636 
	C253.385269,391.442780 260.382324,357.814972 283.556091,337.848785 
	C286.810089,335.045166 290.047302,335.400299 293.024658,337.859955 
	C296.444824,340.685486 296.478027,345.395782 293.474426,348.984253 
	C290.600464,352.417877 287.487122,355.676727 284.868805,359.294525 
	C270.084137,379.722748 272.781250,407.139404 289.085266,425.504822 
	C292.086639,428.885681 293.654053,432.863190 290.518127,436.175873 
	C288.701538,438.094910 284.221863,439.215210 281.757172,438.355103 
	C278.789917,437.319580 276.324371,434.066132 274.303284,431.290985 
	C271.576263,427.546509 269.479919,423.342743 266.955902,418.995636 
z"/>
</svg>